<?xml version="1.0" standalone="no"?>
<!DOCTYPE svg PUBLIC "-//W3C//DTD SVG 20010904//EN"
 "http://www.w3.org/TR/2001/REC-SVG-20010904/DTD/svg10.dtd">
<svg version="1.0" xmlns="http://www.w3.org/2000/svg"
 width="400.000000pt" height="400.000000pt" viewBox="0 0 400.000000 400.000000"
 preserveAspectRatio="xMidYMid meet">

<g transform="translate(0.000000,400.000000) scale(0.100000,-0.100000)"
fill="#000000" stroke="none">
<path d="M902 3147 c-21 -23 -22 -31 -22 -264 0 -133 3 -249 6 -258 17 -43 37
-45 548 -45 282 0 487 -4 490 -9 6 -9 -148 -170 -814 -856 -128 -132 -241
-253 -251 -270 -17 -27 -19 -53 -19 -277 0 -235 1 -249 20 -268 20 -20 33 -20
1083 -20 l1064 0 19 21 c18 20 19 40 19 289 l0 268 -24 26 -24 26 -529 0
c-464 0 -528 2 -528 15 0 14 105 123 792 820 119 121 230 237 247 259 l31 39
0 243 c0 231 -1 245 -20 264 -20 20 -33 20 -1043 20 l-1024 0 -21 -23z m345
-1806 c22 -11 35 -65 20 -80 -6 -6 -19 -6 -35 0 -38 14 -134 14 -161 0 -12 -7
-29 -28 -37 -48 -29 -68 18 -133 95 -133 58 0 85 26 34 32 -25 3 -28 7 -31 46
l-3 42 80 0 81 0 0 -90 c0 -89 0 -91 -27 -101 -16 -6 -74 -11 -130 -11 -88 0
-107 3 -145 23 -46 26 -88 91 -88 139 0 80 53 159 125 186 45 16 188 14 222
-5z m420 -146 c43 -85 82 -155 88 -155 6 0 10 56 10 152 l0 153 61 3 61 3 57
-96 c31 -52 58 -95 60 -95 2 0 29 43 60 95 l57 95 59 0 60 0 0 -176 0 -175
-52 3 -53 3 -1 77 c-1 43 -5 78 -9 79 -5 0 -27 -35 -49 -78 -36 -69 -45 -78
-71 -81 -29 -3 -32 1 -73 84 -24 47 -46 84 -49 81 -3 -3 -6 -41 -7 -84 l-1
-78 -116 -3 c-115 -3 -117 -2 -133 23 -15 23 -22 25 -96 25 -74 0 -81 -2 -96
-25 -14 -22 -24 -25 -70 -25 -30 0 -54 3 -54 7 0 4 33 68 74 142 120 221 104
201 159 201 l47 0 77 -155z m878 110 l0 -40 -78 -5 c-42 -3 -77 -8 -77 -12 0
-5 0 -12 0 -18 0 -5 30 -10 68 -12 l67 -3 -2 -35 c-1 -19 -2 -38 -2 -42 -1 -5
-30 -8 -66 -8 -58 0 -65 -2 -65 -20 0 -17 8 -19 83 -22 l82 -3 0 -40 0 -40
-142 -3 -143 -3 0 176 0 176 138 -3 137 -3 0 -40z m345 30 c59 -31 69 -105 20
-151 -29 -28 -29 -29 -11 -49 23 -25 71 -110 71 -124 0 -7 -25 -11 -65 -11
l-65 0 -30 60 c-22 43 -37 61 -55 66 -39 10 -55 -11 -55 -73 l0 -54 -57 3 -58
3 -3 160 c-1 87 0 165 2 172 8 20 267 18 306 -2z"/>
<path d="M1516 1172 c-21 -41 -21 -42 14 -42 33 0 37 12 16 49 l-14 25 -16
-32z"/>
<path d="M2710 1240 c0 -29 2 -30 44 -30 26 0 48 6 56 15 20 25 -5 45 -56 45
-42 0 -44 -1 -44 -30z"/>
</g>
</svg>
