<?xml version="1.0" standalone="no"?>
<!DOCTYPE svg PUBLIC "-//W3C//DTD SVG 20010904//EN"
 "http://www.w3.org/TR/2001/REC-SVG-20010904/DTD/svg10.dtd">
<svg version="1.0" xmlns="http://www.w3.org/2000/svg"
 width="1200.000000pt" height="1200.000000pt" viewBox="0 0 1200.000000 1200.000000"
 preserveAspectRatio="xMidYMid meet">

<g transform="translate(0.000000,1200.000000) scale(0.100000,-0.100000)"
fill="#000000" stroke="none">
<path d="M5520 9986 c-89 -20 -130 -36 -209 -78 -162 -85 -292 -216 -380 -379
-95 -178 -112 -257 -118 -581 l-5 -258 -749 0 c-412 0 -749 -2 -749 -4 0 -2
-11 -102 -25 -222 -13 -121 -47 -424 -74 -674 -28 -250 -89 -801 -135 -1225
-93 -844 -270 -2442 -341 -3094 -25 -228 -43 -416 -41 -418 2 -3 98 -13 213
-23 384 -35 983 -89 1553 -140 311 -27 664 -59 785 -70 405 -36 1675 -150
2130 -190 248 -22 488 -44 534 -48 l84 -8 671 191 c369 105 712 203 761 217
62 17 89 30 88 39 -11 63 -419 2417 -473 2729 -23 129 -61 350 -85 490 -24
140 -103 593 -174 1005 -72 413 -152 876 -179 1030 l-48 280 -157 3 -157 3 0
64 0 65 -525 0 -525 0 0 149 c0 180 -12 277 -50 388 -41 124 -111 233 -215
338 -134 136 -260 211 -435 260 -52 15 -106 34 -120 42 -67 38 -191 94 -245
110 -78 22 -519 29 -605 9z m525 -261 c111 -28 183 -71 276 -164 64 -64 95
-106 126 -166 82 -160 77 -106 81 -887 3 -691 3 -697 -18 -718 -24 -24 -67
-26 -92 -3 -17 15 -18 48 -18 635 0 526 -2 630 -16 696 -41 198 -192 356 -389
407 -69 17 -282 21 -366 5 -137 -25 -289 -139 -356 -266 -62 -116 -63 -127
-63 -787 l0 -598 -25 -24 c-29 -30 -45 -31 -79 -4 l-26 20 0 648 c0 608 1 652
19 723 59 232 232 417 446 479 82 24 412 26 500 4z m771 -436 c85 -125 96
-171 103 -402 l6 -197 -67 0 -68 0 0 244 c0 240 -12 363 -42 420 -8 14 -7 17
4 14 7 -3 36 -38 64 -79z m-1218 -109 c-18 -56 -22 -95 -26 -277 l-4 -213 -49
0 -49 0 0 173 c0 189 10 246 54 305 23 31 86 85 92 79 2 -2 -6 -32 -18 -67z
m442 33 c23 -20 53 -60 66 -87 22 -48 24 -62 24 -243 l0 -193 -145 0 -145 0 0
198 c0 193 1 199 26 250 28 56 84 112 113 112 9 0 37 -17 61 -37z m123 -1515
c35 -72 120 -151 186 -173 54 -18 159 -21 209 -6 88 26 160 89 203 177 24 48
24 53 27 387 l3 337 529 0 530 0 0 -2786 0 -2785 -52 5 c-57 7 -131 13 -838
76 -250 22 -527 47 -615 55 -88 8 -414 37 -725 65 -311 28 -740 66 -955 85
-1035 93 -1285 115 -1475 131 -113 10 -206 18 -208 19 -1 2 24 249 58 551 33
302 69 632 80 734 11 102 27 241 35 310 8 69 42 375 75 680 33 305 67 614 76
685 13 116 91 826 201 1833 l38 342 632 0 631 0 4 -297 c3 -297 3 -298 29
-353 36 -77 77 -121 151 -161 57 -30 71 -33 148 -34 66 0 95 5 132 22 63 29
134 96 166 158 l27 50 3 307 3 308 327 2 327 3 5 -335 5 -335 28 -57z m2171
575 c3 -10 10 -49 17 -88 6 -38 30 -182 54 -320 24 -137 69 -396 100 -575 31
-179 87 -503 125 -720 65 -371 267 -1536 311 -1790 18 -104 95 -545 199 -1149
22 -124 38 -226 37 -228 -3 -2 -56 45 -385 342 -85 76 -120 114 -117 126 3 10
-3 20 -18 26 -22 10 -24 19 -31 110 -4 54 -13 186 -21 293 -8 107 -31 413 -50
680 -20 267 -42 573 -50 680 -8 107 -31 411 -50 675 -20 264 -49 660 -65 880
-16 220 -39 526 -50 680 -11 154 -23 306 -26 338 -4 36 -2 57 4 57 6 0 13 -8
16 -17z m-184 -1378 c17 -231 46 -634 65 -895 68 -918 104 -1408 131 -1768
l27 -363 -23 -24 c-14 -15 -20 -30 -16 -43 5 -14 -27 -87 -104 -241 -61 -122
-113 -221 -115 -221 -3 0 -4 901 -4 2003 1 1101 3 1995 5 1987 2 -8 17 -204
34 -435z m416 -3299 c8 -8 120 -110 249 -227 130 -117 232 -216 228 -219 -12
-11 -834 -242 -839 -237 -5 5 337 695 344 696 2 1 10 -5 18 -13z"/>
</g>
</svg>
